<?xml version="1.0" encoding="UTF-8" standalone="no"?><svg xmlns="http://www.w3.org/2000/svg" xmlns:xlink="http://www.w3.org/1999/xlink" contentScriptType="application/ecmascript" contentStyleType="text/css" height="283px" preserveAspectRatio="none" style="width:604px;height:283px;" version="1.1" viewBox="0 0 604 283" width="604px" zoomAndPan="magnify"><defs/><g><!--cluster Dependencies--><path d="M24,188 L120,188 A3,3 0 0 1 122,190 L129,208.4844 L590,208.4844 A2,2 0 0 1 592,210.4844 L592,269 A2,2 0 0 1 590,271 L24,271 A2,2 0 0 1 22,269 L22,190 A2,2 0 0 1 24,188 " fill="#FFFFFF" style="stroke: #000000; stroke-width: 1.5;"/><line style="stroke: #000000; stroke-width: 1.5;" x1="22" x2="129" y1="208.4844" y2="208.4844"/><text fill="#000000" font-family="Tahoma, sans-serif" font-size="12" font-weight="bold" lengthAdjust="spacingAndGlyphs" textLength="94" x="26" y="202.0059">Dependencies</text><!--entity @google--><rect fill="#F8F8F8" height="34.4844" rx="2" ry="2" style="stroke: #383838; stroke-width: 1.0;" width="72" x="321" y="221"/><rect fill="#F8F8F8" height="5" style="stroke: #383838; stroke-width: 1.0;" width="10" x="316" y="226"/><rect fill="#F8F8F8" height="5" style="stroke: #383838; stroke-width: 1.0;" width="10" x="316" y="245.4844"/><text fill="#000000" font-family="Tahoma, sans-serif" font-size="12" lengthAdjust="spacingAndGlyphs" textLength="52" x="331" y="243.0059">@google</text><!--entity d3--><rect fill="#F8F8F8" height="34.4844" rx="2" ry="2" style="stroke: #383838; stroke-width: 1.0;" width="34" x="38" y="221"/><rect fill="#F8F8F8" height="5" style="stroke: #383838; stroke-width: 1.0;" width="10" x="33" y="226"/><rect fill="#F8F8F8" height="5" style="stroke: #383838; stroke-width: 1.0;" width="10" x="33" y="245.4844"/><text fill="#000000" font-family="Tahoma, sans-serif" font-size="12" lengthAdjust="spacingAndGlyphs" textLength="14" x="48" y="243.0059">d3</text><!--entity d3-node--><rect fill="#F8F8F8" height="34.4844" rx="2" ry="2" style="stroke: #383838; stroke-width: 1.0;" width="68" x="86" y="221"/><rect fill="#F8F8F8" height="5" style="stroke: #383838; stroke-width: 1.0;" width="10" x="81" y="226"/><rect fill="#F8F8F8" height="5" style="stroke: #383838; stroke-width: 1.0;" width="10" x="81" y="245.4844"/><text fill="#000000" font-family="Tahoma, sans-serif" font-size="12" lengthAdjust="spacingAndGlyphs" textLength="48" x="96" y="243.0059">d3-node</text><!--entity node-fetch--><rect fill="#F8F8F8" height="34.4844" rx="2" ry="2" style="stroke: #383838; stroke-width: 1.0;" width="83" x="407.5" y="221"/><rect fill="#F8F8F8" height="5" style="stroke: #383838; stroke-width: 1.0;" width="10" x="402.5" y="226"/><rect fill="#F8F8F8" height="5" style="stroke: #383838; stroke-width: 1.0;" width="10" x="402.5" y="245.4844"/><text fill="#000000" font-family="Tahoma, sans-serif" font-size="12" lengthAdjust="spacingAndGlyphs" textLength="63" x="417.5" y="243.0059">node-fetch</text><!--entity progress--><rect fill="#F8F8F8" height="34.4844" rx="2" ry="2" style="stroke: #383838; stroke-width: 1.0;" width="71" x="504.5" y="221"/><rect fill="#F8F8F8" height="5" style="stroke: #383838; stroke-width: 1.0;" width="10" x="499.5" y="226"/><rect fill="#F8F8F8" height="5" style="stroke: #383838; stroke-width: 1.0;" width="10" x="499.5" y="245.4844"/><text fill="#000000" font-family="Tahoma, sans-serif" font-size="12" lengthAdjust="spacingAndGlyphs" textLength="51" x="514.5" y="243.0059">progress</text><!--entity topojson--><rect fill="#F8F8F8" height="34.4844" rx="2" ry="2" style="stroke: #383838; stroke-width: 1.0;" width="73" x="168.5" y="221"/><rect fill="#F8F8F8" height="5" style="stroke: #383838; stroke-width: 1.0;" width="10" x="163.5" y="226"/><rect fill="#F8F8F8" height="5" style="stroke: #383838; stroke-width: 1.0;" width="10" x="163.5" y="245.4844"/><text fill="#000000" font-family="Tahoma, sans-serif" font-size="12" lengthAdjust="spacingAndGlyphs" textLength="53" x="178.5" y="243.0059">topojson</text><!--entity yargs--><rect fill="#F8F8F8" height="34.4844" rx="2" ry="2" style="stroke: #383838; stroke-width: 1.0;" width="51" x="255.5" y="221"/><rect fill="#F8F8F8" height="5" style="stroke: #383838; stroke-width: 1.0;" width="10" x="250.5" y="226"/><rect fill="#F8F8F8" height="5" style="stroke: #383838; stroke-width: 1.0;" width="10" x="250.5" y="245.4844"/><text fill="#000000" font-family="Tahoma, sans-serif" font-size="12" lengthAdjust="spacingAndGlyphs" textLength="31" x="265.5" y="243.0059">yargs</text><ellipse cx="359.2487" cy="21.242" fill="#F8F8F8" rx="27.7487" ry="13.242" style="stroke: #383838; stroke-width: 0.5;"/><text fill="#000000" font-family="Tahoma, sans-serif" font-size="12" lengthAdjust="spacingAndGlyphs" textLength="35" x="341.7487" y="24.9842">github</text><ellipse cx="358.8534" cy="75.5707" fill="#F8F8F8" rx="55.8534" ry="13.5707" style="stroke: #383838; stroke-width: 0.5;"/><text fill="#000000" font-family="Tahoma, sans-serif" font-size="12" lengthAdjust="spacingAndGlyphs" textLength="77" x="320.3534" y="79.3129">google-maps</text><ellipse cx="250.8406" cy="21.242" fill="#F8F8F8" rx="46.8406" ry="13.242" style="stroke: #383838; stroke-width: 0.5;"/><text fill="#000000" font-family="Tahoma, sans-serif" font-size="12" font-weight="bold" lengthAdjust="spacingAndGlyphs" textLength="62" x="219.8406" y="24.9842">src/index</text><ellipse cx="162.1421" cy="130.242" fill="#F8F8F8" rx="17.1421" ry="13.242" style="stroke: #383838; stroke-width: 0.5;"/><text fill="#000000" font-family="Tahoma, sans-serif" font-size="12" lengthAdjust="spacingAndGlyphs" textLength="20" x="152.1421" y="133.9842">svg</text><ellipse cx="280.9706" cy="130.242" fill="#F8F8F8" rx="19.9706" ry="13.242" style="stroke: #383838; stroke-width: 0.5;"/><text fill="#000000" font-family="Tahoma, sans-serif" font-size="12" lengthAdjust="spacingAndGlyphs" textLength="24" x="268.9706" y="133.9842">utils</text><!--link github to google-maps--><path d="M359,34.177 C359,40.742 359,48.975 359,56.288 " fill="none" id="github-google-maps" style="stroke: #000000; stroke-width: 0.55;"/><polygon fill="#000000" points="359,61.657,363,52.657,359,56.657,355,52.657,359,61.657" style="stroke: #000000; stroke-width: 0.55;"/><!--link github to node-fetch--><path d="M379.665,29.707 C393.906,36.129 412.003,46.711 422,62 C453.3,109.869 453.366,180.589 451.065,215.6633 " fill="none" id="github-node-fetch" style="stroke: #000000; stroke-width: 0.55;"/><polygon fill="#000000" points="450.68,220.9776,455.3203,212.2904,451.0416,215.9907,447.3413,211.7119,450.68,220.9776" style="stroke: #000000; stroke-width: 0.55;"/><!--link github to progress--><path d="M381.122,29.067 C398.472,35.483 422.384,46.349 439,62 C486.946,107.161 518.893,180.218 532.518,215.9549 " fill="none" id="github-progress" style="stroke: #000000; stroke-width: 0.55;"/><polygon fill="#000000" points="534.394,220.949,534.9726,211.1172,532.6352,216.2685,527.4838,213.9312,534.394,220.949" style="stroke: #000000; stroke-width: 0.55;"/><!--link github to utils--><path d="M338.642,29.916 C324.55,36.438 306.505,47.055 296,62 C285.683,76.678 282.312,97.257 281.286,111.724 " fill="none" id="github-utils" style="stroke: #000000; stroke-width: 0.55;"/><polygon fill="#000000" points="281.006,116.755,285.5012,107.9918,281.2845,111.7628,277.5136,107.5461,281.006,116.755" style="stroke: #000000; stroke-width: 0.55;"/><!--link google-maps to @google--><path d="M358.843,89.094 C358.502,116.451 357.691,181.571 357.267,215.5434 " fill="none" id="google-maps-@google" style="stroke: #000000; stroke-width: 0.55;"/><polygon fill="#000000" points="357.203,220.7178,361.3151,211.7684,357.2654,215.7182,353.3157,211.6686,357.203,220.7178" style="stroke: #000000; stroke-width: 0.55;"/><!--link google-maps to utils--><path d="M341.301,88.413 C328.651,96.927 311.688,108.345 298.976,116.901 " fill="none" id="google-maps-utils" style="stroke: #000000; stroke-width: 0.55;"/><polygon fill="#000000" points="294.5,119.913,304.1998,118.2058,298.6479,117.1211,299.7327,111.5692,294.5,119.913" style="stroke: #000000; stroke-width: 0.55;"/><!--link <b>src/index</b> to github--><path d="M298.25,21 C307.594,21 316.938,21 326.282,21 " fill="none" id="&lt;b&gt;src/index&lt;/b&gt;-github" style="stroke: #000000; stroke-width: 1.0;"/><polygon fill="#000000" points="331.473,21,322.473,17,326.473,21,322.473,25,331.473,21" style="stroke: #000000; stroke-width: 1.0;"/><!--link <b>src/index</b> to svg--><path d="M241.135,33.86 C224.673,53.652 191.659,93.342 173.921,114.668 " fill="none" id="&lt;b&gt;src/index&lt;/b&gt;-svg" style="stroke: #000000; stroke-width: 1.0;"/><polygon fill="#000000" points="170.587,118.677,179.4182,114.317,173.785,114.8334,173.2685,109.2002,170.587,118.677" style="stroke: #000000; stroke-width: 1.0;"/><!--link <b>src/index</b> to utils--><path d="M254.441,34.274 C259.799,53.382 270.148,90.293 276.224,111.967 " fill="none" id="&lt;b&gt;src/index&lt;/b&gt;-utils" style="stroke: #000000; stroke-width: 1.0;"/><polygon fill="#000000" points="277.599,116.869,279.0204,107.1233,276.249,112.0547,271.3176,109.2833,277.599,116.869" style="stroke: #000000; stroke-width: 1.0;"/><!--link svg to d3--><path d="M147.172,136.364 C128.894,143.656 97.935,158.324 79,180 C70.0377,190.2596 64.0639,204.3504 60.3178,215.9549 " fill="none" id="svg-d3" style="stroke: #000000; stroke-width: 0.55;"/><polygon fill="#000000" points="58.8465,220.7575,65.3075,213.3241,60.3112,215.9768,57.6584,210.9806,58.8465,220.7575" style="stroke: #000000; stroke-width: 0.55;"/><!--link svg to d3-node--><path d="M157.345,142.749 C150.355,160.389 137.044,193.9832 128.348,215.9308 " fill="none" id="svg-d3-node" style="stroke: #000000; stroke-width: 0.55;"/><polygon fill="#000000" points="126.459,220.6988,133.493,213.8051,128.3008,216.0504,126.0555,210.8582,126.459,220.6988" style="stroke: #000000; stroke-width: 0.55;"/><!--link svg to topojson--><path d="M166.766,142.749 C173.922,160.389 187.55,193.9832 196.453,215.9308 " fill="none" id="svg-topojson" style="stroke: #000000; stroke-width: 0.55;"/><polygon fill="#000000" points="198.387,220.6988,198.7101,210.8552,196.5073,216.0656,191.2969,213.8628,198.387,220.6988" style="stroke: #000000; stroke-width: 0.55;"/><!--link utils to yargs--><path d="M281,143.16 C281,160.881 281,194.0585 281,215.8386 " fill="none" id="utils-yargs" style="stroke: #000000; stroke-width: 0.55;"/><polygon fill="#000000" points="281,220.8432,285,211.8432,281,215.8432,277,211.8432,281,220.8432" style="stroke: #000000; stroke-width: 0.55;"/><script type="text/plantuml"><![CDATA[
@startuml

scale max 1920 width
top to bottom direction

skinparam nodesep 14
skinparam ranksep 28
skinparam monochrome true
skinparam shadowing false
skinparam defaultFontName Tahoma
skinparam defaultFontSize 12
skinparam roundCorner 4
skinparam dpi 150
skinparam arrowColor black
skinparam arrowThickness 0.55
skinparam packageTitleAlignment left

skinparam usecase {
  borderThickness 0.5
}

skinparam rectangle {
  borderThickness 0.5
}

skinparam component {
  borderThickness 1
}


(github)
(google-maps)
(<b>src/index</b>)
(svg)
(utils)

package "Dependencies" {
  [@google]
  [d3]
  [d3-node]
  [node-fetch]
  [progress]
  [topojson]
  [yargs]
}

(github) --> (google-maps)
(github) ---> [node-fetch]
(github) ---> [progress]
(github) --> (utils)
(google-maps) ---> [@google]
(google-maps) --> (utils)
(<b>src/index</b>) -[thickness=1]> (github)
(<b>src/index</b>) -[thickness=1]> (svg)
(<b>src/index</b>) -[thickness=1]> (utils)
(svg) ---> [d3]
(svg) ---> [d3-node]
(svg) ---> [topojson]
(utils) ---> [yargs]

@enduml


' View and edit on https://arkit.herokuapp.com
]]></script></g></svg>