<?xml version="1.0" encoding="UTF-8" standalone="no"?><svg xmlns="http://www.w3.org/2000/svg" xmlns:xlink="http://www.w3.org/1999/xlink" contentScriptType="application/ecmascript" contentStyleType="text/css" height="286px" preserveAspectRatio="none" style="width:643px;height:286px;" version="1.1" viewBox="0 0 643 286" width="643px" zoomAndPan="magnify"><defs/><g><!--cluster Dependencies--><path d="M24,191 L120,191 A3,3 0 0 1 122,193 L129,211.4844 L629,211.4844 A2,2 0 0 1 631,213.4844 L631,272 A2,2 0 0 1 629,274 L24,274 A2,2 0 0 1 22,272 L22,193 A2,2 0 0 1 24,191 " fill="#FFFFFF" style="stroke: #000000; stroke-width: 1.5;"/><line style="stroke: #000000; stroke-width: 1.5;" x1="22" x2="129" y1="211.4844" y2="211.4844"/><text fill="#000000" font-family="Tahoma, sans-serif" font-size="12" font-weight="bold" lengthAdjust="spacingAndGlyphs" textLength="94" x="26" y="205.0059">Dependencies</text><!--entity @google--><rect fill="#F8F8F8" height="34.4844" rx="2" ry="2" style="stroke: #383838; stroke-width: 1.0;" width="72" x="360" y="224"/><rect fill="#F8F8F8" height="5" style="stroke: #383838; stroke-width: 1.0;" width="10" x="355" y="229"/><rect fill="#F8F8F8" height="5" style="stroke: #383838; stroke-width: 1.0;" width="10" x="355" y="248.4844"/><text fill="#000000" font-family="Tahoma, sans-serif" font-size="12" lengthAdjust="spacingAndGlyphs" textLength="52" x="370" y="246.0059">@google</text><!--entity color--><rect fill="#F8F8F8" height="34.4844" rx="2" ry="2" style="stroke: #383838; stroke-width: 1.0;" width="50" x="100" y="224"/><rect fill="#F8F8F8" height="5" style="stroke: #383838; stroke-width: 1.0;" width="10" x="95" y="229"/><rect fill="#F8F8F8" height="5" style="stroke: #383838; stroke-width: 1.0;" width="10" x="95" y="248.4844"/><text fill="#000000" font-family="Tahoma, sans-serif" font-size="12" lengthAdjust="spacingAndGlyphs" textLength="30" x="110" y="246.0059">color</text><!--entity d3--><rect fill="#F8F8F8" height="34.4844" rx="2" ry="2" style="stroke: #383838; stroke-width: 1.0;" width="34" x="164" y="224"/><rect fill="#F8F8F8" height="5" style="stroke: #383838; stroke-width: 1.0;" width="10" x="159" y="229"/><rect fill="#F8F8F8" height="5" style="stroke: #383838; stroke-width: 1.0;" width="10" x="159" y="248.4844"/><text fill="#000000" font-family="Tahoma, sans-serif" font-size="12" lengthAdjust="spacingAndGlyphs" textLength="14" x="174" y="246.0059">d3</text><!--entity d3-node--><rect fill="#F8F8F8" height="34.4844" rx="2" ry="2" style="stroke: #383838; stroke-width: 1.0;" width="68" x="212" y="224"/><rect fill="#F8F8F8" height="5" style="stroke: #383838; stroke-width: 1.0;" width="10" x="207" y="229"/><rect fill="#F8F8F8" height="5" style="stroke: #383838; stroke-width: 1.0;" width="10" x="207" y="248.4844"/><text fill="#000000" font-family="Tahoma, sans-serif" font-size="12" lengthAdjust="spacingAndGlyphs" textLength="48" x="222" y="246.0059">d3-node</text><!--entity node-fetch--><rect fill="#F8F8F8" height="34.4844" rx="2" ry="2" style="stroke: #383838; stroke-width: 1.0;" width="83" x="446.5" y="224"/><rect fill="#F8F8F8" height="5" style="stroke: #383838; stroke-width: 1.0;" width="10" x="441.5" y="229"/><rect fill="#F8F8F8" height="5" style="stroke: #383838; stroke-width: 1.0;" width="10" x="441.5" y="248.4844"/><text fill="#000000" font-family="Tahoma, sans-serif" font-size="12" lengthAdjust="spacingAndGlyphs" textLength="63" x="456.5" y="246.0059">node-fetch</text><!--entity progress--><rect fill="#F8F8F8" height="34.4844" rx="2" ry="2" style="stroke: #383838; stroke-width: 1.0;" width="71" x="543.5" y="224"/><rect fill="#F8F8F8" height="5" style="stroke: #383838; stroke-width: 1.0;" width="10" x="538.5" y="229"/><rect fill="#F8F8F8" height="5" style="stroke: #383838; stroke-width: 1.0;" width="10" x="538.5" y="248.4844"/><text fill="#000000" font-family="Tahoma, sans-serif" font-size="12" lengthAdjust="spacingAndGlyphs" textLength="51" x="553.5" y="246.0059">progress</text><!--entity svgo--><rect fill="#F8F8F8" height="34.4844" rx="2" ry="2" style="stroke: #383838; stroke-width: 1.0;" width="48" x="38" y="224"/><rect fill="#F8F8F8" height="5" style="stroke: #383838; stroke-width: 1.0;" width="10" x="33" y="229"/><rect fill="#F8F8F8" height="5" style="stroke: #383838; stroke-width: 1.0;" width="10" x="33" y="248.4844"/><text fill="#000000" font-family="Tahoma, sans-serif" font-size="12" lengthAdjust="spacingAndGlyphs" textLength="28" x="48" y="246.0059">svgo</text><!--entity yargs--><rect fill="#F8F8F8" height="34.4844" rx="2" ry="2" style="stroke: #383838; stroke-width: 1.0;" width="51" x="294.5" y="224"/><rect fill="#F8F8F8" height="5" style="stroke: #383838; stroke-width: 1.0;" width="10" x="289.5" y="229"/><rect fill="#F8F8F8" height="5" style="stroke: #383838; stroke-width: 1.0;" width="10" x="289.5" y="248.4844"/><text fill="#000000" font-family="Tahoma, sans-serif" font-size="12" lengthAdjust="spacingAndGlyphs" textLength="31" x="304.5" y="246.0059">yargs</text><ellipse cx="397.2487" cy="21.242" fill="#F8F8F8" rx="27.7487" ry="13.242" style="stroke: #383838; stroke-width: 0.5;"/><text fill="#000000" font-family="Tahoma, sans-serif" font-size="12" lengthAdjust="spacingAndGlyphs" textLength="35" x="379.7487" y="24.9842">github</text><ellipse cx="396.8534" cy="76.5707" fill="#F8F8F8" rx="55.8534" ry="13.5707" style="stroke: #383838; stroke-width: 0.5;"/><text fill="#000000" font-family="Tahoma, sans-serif" font-size="12" lengthAdjust="spacingAndGlyphs" textLength="77" x="358.3534" y="80.3129">google-maps</text><ellipse cx="288.8406" cy="21.242" fill="#F8F8F8" rx="46.8406" ry="13.242" style="stroke: #383838; stroke-width: 0.5;"/><text fill="#000000" font-family="Tahoma, sans-serif" font-size="12" font-weight="bold" lengthAdjust="spacingAndGlyphs" textLength="62" x="257.8406" y="24.9842">src/index</text><ellipse cx="198.1421" cy="76.742" fill="#F8F8F8" rx="17.1421" ry="13.242" style="stroke: #383838; stroke-width: 0.5;"/><text fill="#000000" font-family="Tahoma, sans-serif" font-size="12" lengthAdjust="spacingAndGlyphs" textLength="20" x="188.1421" y="80.4842">svg</text><ellipse cx="318.9706" cy="132.242" fill="#F8F8F8" rx="19.9706" ry="13.242" style="stroke: #383838; stroke-width: 0.5;"/><text fill="#000000" font-family="Tahoma, sans-serif" font-size="12" lengthAdjust="spacingAndGlyphs" textLength="24" x="306.9706" y="135.9842">utils</text><!--link github to google-maps--><path d="M397,34.14 C397,41.054 397,49.845 397,57.544 " fill="none" id="github-google-maps" style="stroke: #000000; stroke-width: 0.55;"/><polygon fill="#000000" points="397,62.662,401,53.662,397,57.662,393,53.662,397,62.662" style="stroke: #000000; stroke-width: 0.55;"/><!--link github to node-fetch--><path d="M417.354,29.901 C431.636,36.539 449.917,47.453 460,63 C491.496,111.562 492.001,183.024 489.926,218.4521 " fill="none" id="github-node-fetch" style="stroke: #000000; stroke-width: 0.55;"/><polygon fill="#000000" points="489.575,223.8198,494.1539,215.1001,489.9013,218.8305,486.1709,214.5779,489.575,223.8198" style="stroke: #000000; stroke-width: 0.55;"/><!--link github to progress--><path d="M418.769,29.231 C436.146,35.859 460.271,47.074 477,63 C525.233,108.917 557.584,182.697 571.403,218.7654 " fill="none" id="github-progress" style="stroke: #000000; stroke-width: 0.55;"/><polygon fill="#000000" points="573.308,223.8055,573.8699,213.9727,571.5413,219.128,566.3859,216.7994,573.308,223.8055" style="stroke: #000000; stroke-width: 0.55;"/><!--link github to utils--><path d="M376.922,30.086 C362.777,36.815 344.547,47.764 334,63 C323.582,78.05 320.24,99.084 319.249,113.759 " fill="none" id="github-utils" style="stroke: #000000; stroke-width: 0.55;"/><polygon fill="#000000" points="318.981,118.855,323.4486,110.0777,319.2439,113.8619,315.4597,109.6572,318.981,118.855" style="stroke: #000000; stroke-width: 0.55;"/><!--link google-maps to @google--><path d="M396.922,90.251 C396.751,118.02 396.343,184.218 396.132,218.54 " fill="none" id="google-maps-@google" style="stroke: #000000; stroke-width: 0.55;"/><polygon fill="#000000" points="396.1,223.7639,400.1555,214.7888,396.1309,218.764,392.1556,214.7394,396.1,223.7639" style="stroke: #000000; stroke-width: 0.55;"/><!--link google-maps to utils--><path d="M379.689,89.373 C366.786,98.224 349.238,110.26 336.33,119.114 " fill="none" id="google-maps-utils" style="stroke: #000000; stroke-width: 0.55;"/><polygon fill="#000000" points="332.143,121.985,341.8272,120.1918,336.266,119.1564,337.3014,113.5951,332.143,121.985" style="stroke: #000000; stroke-width: 0.55;"/><!--link <b>src/index</b> to github--><path d="M336.25,21 C345.594,21 354.938,21 364.282,21 " fill="none" id="&lt;b&gt;src/index&lt;/b&gt;-github" style="stroke: #000000; stroke-width: 1.0;"/><polygon fill="#000000" points="369.473,21,360.473,17,364.473,21,360.473,25,369.473,21" style="stroke: #000000; stroke-width: 1.0;"/><!--link <b>src/index</b> to svg--><path d="M270.145,33.085 C254.104,42.516 231.241,55.957 215.577,65.166 " fill="none" id="&lt;b&gt;src/index&lt;/b&gt;-svg" style="stroke: #000000; stroke-width: 1.0;"/><polygon fill="#000000" points="210.963,67.879,220.7488,66.7667,215.2735,65.3453,216.6949,59.8699,210.963,67.879" style="stroke: #000000; stroke-width: 1.0;"/><!--link <b>src/index</b> to utils--><path d="M292.325,34.081 C297.664,53.478 308.166,91.636 314.279,113.848 " fill="none" id="&lt;b&gt;src/index&lt;/b&gt;-utils" style="stroke: #000000; stroke-width: 1.0;"/><polygon fill="#000000" points="315.66,118.865,317.1273,109.1261,314.3327,114.0444,309.4144,111.2498,315.66,118.865" style="stroke: #000000; stroke-width: 1.0;"/><!--link svg to color--><path d="M192.867,88.927 C180.741,115.919 150.173,183.965 134.535,218.7749 " fill="none" id="svg-color" style="stroke: #000000; stroke-width: 0.55;"/><polygon fill="#000000" points="132.34,223.6608,139.6774,217.0909,134.3893,219.1001,132.3802,213.812,132.34,223.6608" style="stroke: #000000; stroke-width: 0.55;"/><!--link svg to d3--><path d="M196.722,89.714 C193.849,117.179 186.848,184.099 183.237,218.6202 " fill="none" id="svg-d3" style="stroke: #000000; stroke-width: 0.55;"/><polygon fill="#000000" points="182.687,223.8715,187.6018,215.3366,183.2073,218.8986,179.6452,214.5041,182.687,223.8715" style="stroke: #000000; stroke-width: 0.55;"/><!--link svg to d3-node--><path d="M201.53,89.449 C209.619,116.834 229.583,184.422 239.784,218.955 " fill="none" id="svg-d3-node" style="stroke: #000000; stroke-width: 0.55;"/><polygon fill="#000000" points="241.215,223.8014,242.5016,214.0369,239.7986,219.0062,234.8293,216.3032,241.215,223.8014" style="stroke: #000000; stroke-width: 0.55;"/><!--link svg to svgo--><path d="M187.154,86.526 C166.889,103.767 122.653,143.221 93,183 C84.635,194.2217 77.0874,207.9777 71.5343,219.1645 " fill="none" id="svg-svgo" style="stroke: #000000; stroke-width: 0.55;"/><polygon fill="#000000" points="69.2799,223.7867,76.8204,217.451,71.4717,219.2927,69.63,213.9441,69.2799,223.7867" style="stroke: #000000; stroke-width: 0.55;"/><!--link svg to utils--><path d="M212.355,83.847 C233.718,93.293 273.979,111.094 298.456,121.917 " fill="none" id="svg-utils" style="stroke: #000000; stroke-width: 0.55;"/><polygon fill="#000000" points="303.131,123.983,296.5185,116.684,298.5584,121.9603,293.2822,124.0001,303.131,123.983" style="stroke: #000000; stroke-width: 0.55;"/><!--link utils to yargs--><path d="M319.115,145.274 C319.282,163.163 319.595,196.6534 319.8,218.6389 " fill="none" id="utils-yargs" style="stroke: #000000; stroke-width: 0.55;"/><polygon fill="#000000" points="319.848,223.6908,323.7635,214.6537,319.8011,218.691,315.7638,214.7287,319.848,223.6908" style="stroke: #000000; stroke-width: 0.55;"/><script type="text/plantuml"><![CDATA[
@startuml

scale max 1920 width
top to bottom direction

skinparam nodesep 14
skinparam ranksep 29
skinparam monochrome true
skinparam shadowing false
skinparam defaultFontName Tahoma
skinparam defaultFontSize 12
skinparam roundCorner 4
skinparam dpi 150
skinparam arrowColor black
skinparam arrowThickness 0.55
skinparam packageTitleAlignment left

skinparam usecase {
  borderThickness 0.5
}

skinparam rectangle {
  borderThickness 0.5
}

skinparam component {
  borderThickness 1
}


(github)
(google-maps)
(<b>src/index</b>)
(svg)
(utils)

package "Dependencies" {
  [@google]
  [color]
  [d3]
  [d3-node]
  [node-fetch]
  [progress]
  [svgo]
  [yargs]
}

(github) --> (google-maps)
(github) ---> [node-fetch]
(github) ---> [progress]
(github) --> (utils)
(google-maps) ---> [@google]
(google-maps) --> (utils)
(<b>src/index</b>) -[thickness=1]> (github)
(<b>src/index</b>) -[thickness=1]> (svg)
(<b>src/index</b>) -[thickness=1]> (utils)
(svg) ---> [color]
(svg) ---> [d3]
(svg) ---> [d3-node]
(svg) ---> [svgo]
(svg) --> (utils)
(utils) ---> [yargs]

@enduml


' View and edit on https://arkit.herokuapp.com
]]></script></g></svg>