<?xml version="1.0" encoding="UTF-8" standalone="no"?><svg xmlns="http://www.w3.org/2000/svg" xmlns:xlink="http://www.w3.org/1999/xlink" contentScriptType="application/ecmascript" contentStyleType="text/css" height="286px" preserveAspectRatio="none" style="width:739px;height:286px;" version="1.1" viewBox="0 0 739 286" width="739px" zoomAndPan="magnify"><defs/><g><!--cluster Dependencies--><path d="M24,191 L120,191 A3,3 0 0 1 122,193 L129,211.4844 L725,211.4844 A2,2 0 0 1 727,213.4844 L727,272 A2,2 0 0 1 725,274 L24,274 A2,2 0 0 1 22,272 L22,193 A2,2 0 0 1 24,191 " fill="#FFFFFF" style="stroke: #000000; stroke-width: 1.5;"/><line style="stroke: #000000; stroke-width: 1.5;" x1="22" x2="129" y1="211.4844" y2="211.4844"/><text fill="#000000" font-family="Tahoma, sans-serif" font-size="12" font-weight="bold" lengthAdjust="spacingAndGlyphs" textLength="94" x="26" y="205.0059">Dependencies</text><!--entity @google--><rect fill="#F8F8F8" height="34.4844" rx="2" ry="2" style="stroke: #383838; stroke-width: 1.0;" width="72" x="454" y="224"/><rect fill="#F8F8F8" height="5" style="stroke: #383838; stroke-width: 1.0;" width="10" x="449" y="229"/><rect fill="#F8F8F8" height="5" style="stroke: #383838; stroke-width: 1.0;" width="10" x="449" y="248.4844"/><text fill="#000000" font-family="Tahoma, sans-serif" font-size="12" lengthAdjust="spacingAndGlyphs" textLength="52" x="464" y="246.0059">@google</text><!--entity color--><rect fill="#F8F8F8" height="34.4844" rx="2" ry="2" style="stroke: #383838; stroke-width: 1.0;" width="50" x="190" y="224"/><rect fill="#F8F8F8" height="5" style="stroke: #383838; stroke-width: 1.0;" width="10" x="185" y="229"/><rect fill="#F8F8F8" height="5" style="stroke: #383838; stroke-width: 1.0;" width="10" x="185" y="248.4844"/><text fill="#000000" font-family="Tahoma, sans-serif" font-size="12" lengthAdjust="spacingAndGlyphs" textLength="30" x="200" y="246.0059">color</text><!--entity d3--><rect fill="#F8F8F8" height="34.4844" rx="2" ry="2" style="stroke: #383838; stroke-width: 1.0;" width="34" x="255" y="224"/><rect fill="#F8F8F8" height="5" style="stroke: #383838; stroke-width: 1.0;" width="10" x="250" y="229"/><rect fill="#F8F8F8" height="5" style="stroke: #383838; stroke-width: 1.0;" width="10" x="250" y="248.4844"/><text fill="#000000" font-family="Tahoma, sans-serif" font-size="12" lengthAdjust="spacingAndGlyphs" textLength="14" x="265" y="246.0059">d3</text><!--entity d3-node--><rect fill="#F8F8F8" height="34.4844" rx="2" ry="2" style="stroke: #383838; stroke-width: 1.0;" width="68" x="304" y="224"/><rect fill="#F8F8F8" height="5" style="stroke: #383838; stroke-width: 1.0;" width="10" x="299" y="229"/><rect fill="#F8F8F8" height="5" style="stroke: #383838; stroke-width: 1.0;" width="10" x="299" y="248.4844"/><text fill="#000000" font-family="Tahoma, sans-serif" font-size="12" lengthAdjust="spacingAndGlyphs" textLength="48" x="314" y="246.0059">d3-node</text><!--entity node-fetch--><rect fill="#F8F8F8" height="34.4844" rx="2" ry="2" style="stroke: #383838; stroke-width: 1.0;" width="83" x="541.5" y="224"/><rect fill="#F8F8F8" height="5" style="stroke: #383838; stroke-width: 1.0;" width="10" x="536.5" y="229"/><rect fill="#F8F8F8" height="5" style="stroke: #383838; stroke-width: 1.0;" width="10" x="536.5" y="248.4844"/><text fill="#000000" font-family="Tahoma, sans-serif" font-size="12" lengthAdjust="spacingAndGlyphs" textLength="63" x="551.5" y="246.0059">node-fetch</text><!--entity progress--><rect fill="#F8F8F8" height="34.4844" rx="2" ry="2" style="stroke: #383838; stroke-width: 1.0;" width="71" x="639.5" y="224"/><rect fill="#F8F8F8" height="5" style="stroke: #383838; stroke-width: 1.0;" width="10" x="634.5" y="229"/><rect fill="#F8F8F8" height="5" style="stroke: #383838; stroke-width: 1.0;" width="10" x="634.5" y="248.4844"/><text fill="#000000" font-family="Tahoma, sans-serif" font-size="12" lengthAdjust="spacingAndGlyphs" textLength="51" x="649.5" y="246.0059">progress</text><!--entity svgo--><rect fill="#F8F8F8" height="34.4844" rx="2" ry="2" style="stroke: #383838; stroke-width: 1.0;" width="48" x="38" y="224"/><rect fill="#F8F8F8" height="5" style="stroke: #383838; stroke-width: 1.0;" width="10" x="33" y="229"/><rect fill="#F8F8F8" height="5" style="stroke: #383838; stroke-width: 1.0;" width="10" x="33" y="248.4844"/><text fill="#000000" font-family="Tahoma, sans-serif" font-size="12" lengthAdjust="spacingAndGlyphs" textLength="28" x="48" y="246.0059">svgo</text><!--entity topojson--><rect fill="#F8F8F8" height="34.4844" rx="2" ry="2" style="stroke: #383838; stroke-width: 1.0;" width="73" x="101.5" y="224"/><rect fill="#F8F8F8" height="5" style="stroke: #383838; stroke-width: 1.0;" width="10" x="96.5" y="229"/><rect fill="#F8F8F8" height="5" style="stroke: #383838; stroke-width: 1.0;" width="10" x="96.5" y="248.4844"/><text fill="#000000" font-family="Tahoma, sans-serif" font-size="12" lengthAdjust="spacingAndGlyphs" textLength="53" x="111.5" y="246.0059">topojson</text><!--entity yargs--><rect fill="#F8F8F8" height="34.4844" rx="2" ry="2" style="stroke: #383838; stroke-width: 1.0;" width="51" x="387.5" y="224"/><rect fill="#F8F8F8" height="5" style="stroke: #383838; stroke-width: 1.0;" width="10" x="382.5" y="229"/><rect fill="#F8F8F8" height="5" style="stroke: #383838; stroke-width: 1.0;" width="10" x="382.5" y="248.4844"/><text fill="#000000" font-family="Tahoma, sans-serif" font-size="12" lengthAdjust="spacingAndGlyphs" textLength="31" x="397.5" y="246.0059">yargs</text><ellipse cx="491.2487" cy="21.242" fill="#F8F8F8" rx="27.7487" ry="13.242" style="stroke: #383838; stroke-width: 0.5;"/><text fill="#000000" font-family="Tahoma, sans-serif" font-size="12" lengthAdjust="spacingAndGlyphs" textLength="35" x="473.7487" y="24.9842">github</text><ellipse cx="490.8534" cy="76.5707" fill="#F8F8F8" rx="55.8534" ry="13.5707" style="stroke: #383838; stroke-width: 0.5;"/><text fill="#000000" font-family="Tahoma, sans-serif" font-size="12" lengthAdjust="spacingAndGlyphs" textLength="77" x="452.3534" y="80.3129">google-maps</text><ellipse cx="380.8406" cy="21.242" fill="#F8F8F8" rx="46.8406" ry="13.242" style="stroke: #383838; stroke-width: 0.5;"/><text fill="#000000" font-family="Tahoma, sans-serif" font-size="12" font-weight="bold" lengthAdjust="spacingAndGlyphs" textLength="62" x="349.8406" y="24.9842">src/index</text><ellipse cx="272.1421" cy="76.742" fill="#F8F8F8" rx="17.1421" ry="13.242" style="stroke: #383838; stroke-width: 0.5;"/><text fill="#000000" font-family="Tahoma, sans-serif" font-size="12" lengthAdjust="spacingAndGlyphs" textLength="20" x="262.1421" y="80.4842">svg</text><ellipse cx="411.9706" cy="132.242" fill="#F8F8F8" rx="19.9706" ry="13.242" style="stroke: #383838; stroke-width: 0.5;"/><text fill="#000000" font-family="Tahoma, sans-serif" font-size="12" lengthAdjust="spacingAndGlyphs" textLength="24" x="399.9706" y="135.9842">utils</text><!--link github to google-maps--><path d="M491,34.14 C491,41.054 491,49.845 491,57.544 " fill="none" id="github-google-maps" style="stroke: #000000; stroke-width: 0.55;"/><polygon fill="#000000" points="491,62.662,495,53.662,491,57.662,487,53.662,491,62.662" style="stroke: #000000; stroke-width: 0.55;"/><!--link github to node-fetch--><path d="M511.672,29.82 C526.177,36.417 544.747,47.316 555,63 C586.67,111.449 587.097,182.962 584.965,218.4268 " fill="none" id="github-node-fetch" style="stroke: #000000; stroke-width: 0.55;"/><polygon fill="#000000" points="584.605,223.8001,589.1973,215.0874,584.939,218.8113,581.2152,214.553,584.605,223.8001" style="stroke: #000000; stroke-width: 0.55;"/><!--link github to progress--><path d="M512.669,29.055 C530.279,35.641 554.916,46.886 572,63 C620.564,108.805 653.298,182.637 667.299,218.7416 " fill="none" id="github-progress" style="stroke: #000000; stroke-width: 0.55;"/><polygon fill="#000000" points="669.228,223.7869,669.7492,213.9518,667.442,219.1168,662.277,216.8095,669.228,223.7869" style="stroke: #000000; stroke-width: 0.55;"/><!--link github to utils--><path d="M470.985,30.13 C456.872,36.881 438.653,47.838 428,63 C417.443,78.025 413.777,99.063 412.544,113.746 " fill="none" id="github-utils" style="stroke: #000000; stroke-width: 0.55;"/><polygon fill="#000000" points="412.191,118.845,416.8036,110.1431,412.5367,113.857,408.8228,109.59,412.191,118.845" style="stroke: #000000; stroke-width: 0.55;"/><!--link google-maps to @google--><path d="M490.922,90.251 C490.751,118.02 490.343,184.218 490.132,218.54 " fill="none" id="google-maps-@google" style="stroke: #000000; stroke-width: 0.55;"/><polygon fill="#000000" points="490.1,223.7639,494.1555,214.7888,490.1309,218.764,486.1556,214.7394,490.1,223.7639" style="stroke: #000000; stroke-width: 0.55;"/><!--link google-maps to utils--><path d="M473.467,89.373 C460.398,98.224 442.625,110.26 429.552,119.114 " fill="none" id="google-maps-utils" style="stroke: #000000; stroke-width: 0.55;"/><polygon fill="#000000" points="425.312,121.985,435.0071,120.2517,429.4524,119.1819,430.5222,113.6271,425.312,121.985" style="stroke: #000000; stroke-width: 0.55;"/><!--link <b>src/index</b> to github--><path d="M428.266,21 C438.143,21 448.021,21 457.898,21 " fill="none" id="&lt;b&gt;src/index&lt;/b&gt;-github" style="stroke: #000000; stroke-width: 1.0;"/><polygon fill="#000000" points="463.064,21,454.064,17,458.064,21,454.064,25,463.064,21" style="stroke: #000000; stroke-width: 1.0;"/><!--link <b>src/index</b> to svg--><path d="M359.465,32.57 C339.332,42.452 309.586,57.052 290.499,66.42 " fill="none" id="&lt;b&gt;src/index&lt;/b&gt;-svg" style="stroke: #000000; stroke-width: 1.0;"/><polygon fill="#000000" points="285.888,68.683,295.7296,68.3062,290.376,66.479,292.2032,61.1254,285.888,68.683" style="stroke: #000000; stroke-width: 1.0;"/><!--link <b>src/index</b> to utils--><path d="M384.436,34.081 C389.953,53.478 400.805,91.636 407.122,113.848 " fill="none" id="&lt;b&gt;src/index&lt;/b&gt;-utils" style="stroke: #000000; stroke-width: 1.0;"/><polygon fill="#000000" points="408.549,118.865,409.9326,109.1138,407.1803,114.056,402.2381,111.3037,408.549,118.865" style="stroke: #000000; stroke-width: 1.0;"/><!--link svg to color--><path d="M267.901,89.187 C258.363,116.376 234.575,184.194 222.414,218.865 " fill="none" id="svg-color" style="stroke: #000000; stroke-width: 0.55;"/><polygon fill="#000000" points="220.707,223.7312,227.4605,216.5625,222.362,219.013,219.9115,213.9145,220.707,223.7312" style="stroke: #000000; stroke-width: 0.55;"/><!--link svg to d3--><path d="M272,89.714 C272,117.179 272,184.099 272,218.6202 " fill="none" id="svg-d3" style="stroke: #000000; stroke-width: 0.55;"/><polygon fill="#000000" points="272,223.8715,276,214.8715,272,218.8715,268,214.8715,272,223.8715" style="stroke: #000000; stroke-width: 0.55;"/><!--link svg to d3-node--><path d="M276.747,89.187 C287.79,116.376 315.334,184.194 329.416,218.865 " fill="none" id="svg-d3-node" style="stroke: #000000; stroke-width: 0.55;"/><polygon fill="#000000" points="331.392,223.7312,331.7114,213.8875,329.5106,219.0987,324.2994,216.8978,331.392,223.7312" style="stroke: #000000; stroke-width: 0.55;"/><!--link svg to svgo--><path d="M257.134,83.157 C224.205,96.3 144.077,131.733 94,183 C83.9389,193.3001 75.9904,207.3913 70.5319,218.9858 " fill="none" id="svg-svgo" style="stroke: #000000; stroke-width: 0.55;"/><polygon fill="#000000" points="68.346,223.7837,75.7174,217.2521,70.419,219.2337,68.4374,213.9353,68.346,223.7837" style="stroke: #000000; stroke-width: 0.55;"/><!--link svg to topojson--><path d="M262.887,87.839 C246.44,106.573 210.828,147.484 182,183 C172.263,194.9962 161.672,208.695 153.321,219.6562 " fill="none" id="svg-topojson" style="stroke: #000000; stroke-width: 0.55;"/><polygon fill="#000000" points="150.121,223.8662,158.752,219.1221,153.1469,219.8858,152.3833,214.2807,150.121,223.8662" style="stroke: #000000; stroke-width: 0.55;"/><!--link svg to utils--><path d="M286.718,83.124 C311.538,92.609 361.818,111.823 390.561,122.807 " fill="none" id="svg-utils" style="stroke: #000000; stroke-width: 0.55;"/><polygon fill="#000000" points="395.324,124.628,388.3462,117.6774,390.6538,122.8422,385.489,125.1497,395.324,124.628" style="stroke: #000000; stroke-width: 0.55;"/><!--link utils to yargs--><path d="M412.115,145.274 C412.282,163.163 412.595,196.6534 412.8,218.6389 " fill="none" id="utils-yargs" style="stroke: #000000; stroke-width: 0.55;"/><polygon fill="#000000" points="412.848,223.6908,416.7635,214.6537,412.8011,218.691,408.7638,214.7287,412.848,223.6908" style="stroke: #000000; stroke-width: 0.55;"/><script type="text/plantuml"><![CDATA[
@startuml

scale max 1920 width
top to bottom direction

skinparam nodesep 15
skinparam ranksep 29
skinparam monochrome true
skinparam shadowing false
skinparam defaultFontName Tahoma
skinparam defaultFontSize 12
skinparam roundCorner 4
skinparam dpi 150
skinparam arrowColor black
skinparam arrowThickness 0.55
skinparam packageTitleAlignment left

skinparam usecase {
  borderThickness 0.5
}

skinparam rectangle {
  borderThickness 0.5
}

skinparam component {
  borderThickness 1
}


(github)
(google-maps)
(<b>src/index</b>)
(svg)
(utils)

package "Dependencies" {
  [@google]
  [color]
  [d3]
  [d3-node]
  [node-fetch]
  [progress]
  [svgo]
  [topojson]
  [yargs]
}

(github) --> (google-maps)
(github) ---> [node-fetch]
(github) ---> [progress]
(github) --> (utils)
(google-maps) ---> [@google]
(google-maps) --> (utils)
(<b>src/index</b>) -[thickness=1]> (github)
(<b>src/index</b>) -[thickness=1]> (svg)
(<b>src/index</b>) -[thickness=1]> (utils)
(svg) ---> [color]
(svg) ---> [d3]
(svg) ---> [d3-node]
(svg) ---> [svgo]
(svg) ---> [topojson]
(svg) --> (utils)
(utils) ---> [yargs]

@enduml


' View and edit on https://arkit.herokuapp.com
]]></script></g></svg>