<?xml version="1.0" encoding="UTF-8" standalone="no"?><svg xmlns="http://www.w3.org/2000/svg" xmlns:xlink="http://www.w3.org/1999/xlink" contentScriptType="application/ecmascript" contentStyleType="text/css" height="283px" preserveAspectRatio="none" style="width:605px;height:283px;" version="1.1" viewBox="0 0 605 283" width="605px" zoomAndPan="magnify"><defs/><g><!--cluster Dependencies--><path d="M24,188 L120,188 A3,3 0 0 1 122,190 L129,208.4844 L591,208.4844 A2,2 0 0 1 593,210.4844 L593,269 A2,2 0 0 1 591,271 L24,271 A2,2 0 0 1 22,269 L22,190 A2,2 0 0 1 24,188 " fill="#FFFFFF" style="stroke: #000000; stroke-width: 1.5;"/><line style="stroke: #000000; stroke-width: 1.5;" x1="22" x2="129" y1="208.4844" y2="208.4844"/><text fill="#000000" font-family="Tahoma, sans-serif" font-size="12" font-weight="bold" lengthAdjust="spacingAndGlyphs" textLength="94" x="26" y="202.0059">Dependencies</text><!--entity @google--><rect fill="#F8F8F8" height="34.4844" rx="2" ry="2" style="stroke: #383838; stroke-width: 1.0;" width="72" x="322" y="221"/><rect fill="#F8F8F8" height="5" style="stroke: #383838; stroke-width: 1.0;" width="10" x="317" y="226"/><rect fill="#F8F8F8" height="5" style="stroke: #383838; stroke-width: 1.0;" width="10" x="317" y="245.4844"/><text fill="#000000" font-family="Tahoma, sans-serif" font-size="12" lengthAdjust="spacingAndGlyphs" textLength="52" x="332" y="243.0059">@google</text><!--entity d3--><rect fill="#F8F8F8" height="34.4844" rx="2" ry="2" style="stroke: #383838; stroke-width: 1.0;" width="34" x="208" y="221"/><rect fill="#F8F8F8" height="5" style="stroke: #383838; stroke-width: 1.0;" width="10" x="203" y="226"/><rect fill="#F8F8F8" height="5" style="stroke: #383838; stroke-width: 1.0;" width="10" x="203" y="245.4844"/><text fill="#000000" font-family="Tahoma, sans-serif" font-size="12" lengthAdjust="spacingAndGlyphs" textLength="14" x="218" y="243.0059">d3</text><!--entity d3-node--><rect fill="#F8F8F8" height="34.4844" rx="2" ry="2" style="stroke: #383838; stroke-width: 1.0;" width="68" x="38" y="221"/><rect fill="#F8F8F8" height="5" style="stroke: #383838; stroke-width: 1.0;" width="10" x="33" y="226"/><rect fill="#F8F8F8" height="5" style="stroke: #383838; stroke-width: 1.0;" width="10" x="33" y="245.4844"/><text fill="#000000" font-family="Tahoma, sans-serif" font-size="12" lengthAdjust="spacingAndGlyphs" textLength="48" x="48" y="243.0059">d3-node</text><!--entity node-fetch--><rect fill="#F8F8F8" height="34.4844" rx="2" ry="2" style="stroke: #383838; stroke-width: 1.0;" width="83" x="408.5" y="221"/><rect fill="#F8F8F8" height="5" style="stroke: #383838; stroke-width: 1.0;" width="10" x="403.5" y="226"/><rect fill="#F8F8F8" height="5" style="stroke: #383838; stroke-width: 1.0;" width="10" x="403.5" y="245.4844"/><text fill="#000000" font-family="Tahoma, sans-serif" font-size="12" lengthAdjust="spacingAndGlyphs" textLength="63" x="418.5" y="243.0059">node-fetch</text><!--entity progress--><rect fill="#F8F8F8" height="34.4844" rx="2" ry="2" style="stroke: #383838; stroke-width: 1.0;" width="71" x="505.5" y="221"/><rect fill="#F8F8F8" height="5" style="stroke: #383838; stroke-width: 1.0;" width="10" x="500.5" y="226"/><rect fill="#F8F8F8" height="5" style="stroke: #383838; stroke-width: 1.0;" width="10" x="500.5" y="245.4844"/><text fill="#000000" font-family="Tahoma, sans-serif" font-size="12" lengthAdjust="spacingAndGlyphs" textLength="51" x="515.5" y="243.0059">progress</text><!--entity topojson--><rect fill="#F8F8F8" height="34.4844" rx="2" ry="2" style="stroke: #383838; stroke-width: 1.0;" width="73" x="120.5" y="221"/><rect fill="#F8F8F8" height="5" style="stroke: #383838; stroke-width: 1.0;" width="10" x="115.5" y="226"/><rect fill="#F8F8F8" height="5" style="stroke: #383838; stroke-width: 1.0;" width="10" x="115.5" y="245.4844"/><text fill="#000000" font-family="Tahoma, sans-serif" font-size="12" lengthAdjust="spacingAndGlyphs" textLength="53" x="130.5" y="243.0059">topojson</text><!--entity yargs--><rect fill="#F8F8F8" height="34.4844" rx="2" ry="2" style="stroke: #383838; stroke-width: 1.0;" width="51" x="256.5" y="221"/><rect fill="#F8F8F8" height="5" style="stroke: #383838; stroke-width: 1.0;" width="10" x="251.5" y="226"/><rect fill="#F8F8F8" height="5" style="stroke: #383838; stroke-width: 1.0;" width="10" x="251.5" y="245.4844"/><text fill="#000000" font-family="Tahoma, sans-serif" font-size="12" lengthAdjust="spacingAndGlyphs" textLength="31" x="266.5" y="243.0059">yargs</text><ellipse cx="358.2487" cy="21.242" fill="#F8F8F8" rx="27.7487" ry="13.242" style="stroke: #383838; stroke-width: 0.5;"/><text fill="#000000" font-family="Tahoma, sans-serif" font-size="12" lengthAdjust="spacingAndGlyphs" textLength="35" x="340.7487" y="24.9842">github</text><ellipse cx="357.8534" cy="75.5707" fill="#F8F8F8" rx="55.8534" ry="13.5707" style="stroke: #383838; stroke-width: 0.5;"/><text fill="#000000" font-family="Tahoma, sans-serif" font-size="12" lengthAdjust="spacingAndGlyphs" textLength="77" x="319.3534" y="79.3129">google-maps</text><ellipse cx="249.8406" cy="21.242" fill="#F8F8F8" rx="46.8406" ry="13.242" style="stroke: #383838; stroke-width: 0.5;"/><text fill="#000000" font-family="Tahoma, sans-serif" font-size="12" font-weight="bold" lengthAdjust="spacingAndGlyphs" textLength="62" x="218.8406" y="24.9842">src/index</text><ellipse cx="279.9706" cy="130.242" fill="#F8F8F8" rx="19.9706" ry="13.242" style="stroke: #383838; stroke-width: 0.5;"/><text fill="#000000" font-family="Tahoma, sans-serif" font-size="12" lengthAdjust="spacingAndGlyphs" textLength="24" x="267.9706" y="133.9842">utils</text><ellipse cx="185.9203" cy="130.242" fill="#F8F8F8" rx="24.9203" ry="13.242" style="stroke: #383838; stroke-width: 0.5;"/><text fill="#000000" font-family="Tahoma, sans-serif" font-size="12" lengthAdjust="spacingAndGlyphs" textLength="31" x="170.4203" y="133.9842">world</text><!--link github to google-maps--><path d="M358,34.177 C358,40.742 358,48.975 358,56.288 " fill="none" id="github-google-maps" style="stroke: #000000; stroke-width: 0.55;"/><polygon fill="#000000" points="358,61.657,362,52.657,358,56.657,354,52.657,358,61.657" style="stroke: #000000; stroke-width: 0.55;"/><!--link github to node-fetch--><path d="M378.614,29.741 C392.83,36.179 410.918,46.767 421,62 C452.622,109.779 453.598,180.539 451.771,215.6431 " fill="none" id="github-node-fetch" style="stroke: #000000; stroke-width: 0.55;"/><polygon fill="#000000" points="451.458,220.9619,455.9803,212.2127,451.752,215.9706,447.9941,211.7423,451.458,220.9619" style="stroke: #000000; stroke-width: 0.55;"/><!--link github to progress--><path d="M379.733,28.975 C397.09,35.396 421.204,46.314 438,62 C486.378,107.18 519.2,180.228 533.259,215.959 " fill="none" id="github-progress" style="stroke: #000000; stroke-width: 0.55;"/><polygon fill="#000000" points="535.197,220.9522,535.6697,211.1147,533.3879,216.2909,528.2117,214.0092,535.197,220.9522" style="stroke: #000000; stroke-width: 0.55;"/><!--link github to utils--><path d="M337.642,29.916 C323.55,36.438 305.505,47.055 295,62 C284.683,76.678 281.312,97.257 280.286,111.724 " fill="none" id="github-utils" style="stroke: #000000; stroke-width: 0.55;"/><polygon fill="#000000" points="280.006,116.755,284.5012,107.9918,280.2845,111.7628,276.5136,107.5461,280.006,116.755" style="stroke: #000000; stroke-width: 0.55;"/><!--link google-maps to @google--><path d="M358,89.094 C358,116.451 358,181.571 358,215.5434 " fill="none" id="google-maps-@google" style="stroke: #000000; stroke-width: 0.55;"/><polygon fill="#000000" points="358,220.7178,362,211.7178,358,215.7178,354,211.7178,358,220.7178" style="stroke: #000000; stroke-width: 0.55;"/><!--link google-maps to utils--><path d="M340.301,88.413 C327.651,96.927 310.688,108.345 297.976,116.901 " fill="none" id="google-maps-utils" style="stroke: #000000; stroke-width: 0.55;"/><polygon fill="#000000" points="293.5,119.913,303.1998,118.2058,297.6479,117.1211,298.7327,111.5692,293.5,119.913" style="stroke: #000000; stroke-width: 0.55;"/><!--link <b>src/index</b> to github--><path d="M297.25,21 C306.594,21 315.938,21 325.282,21 " fill="none" id="&lt;b&gt;src/index&lt;/b&gt;-github" style="stroke: #000000; stroke-width: 1.0;"/><polygon fill="#000000" points="330.473,21,321.473,17,325.473,21,321.473,25,330.473,21" style="stroke: #000000; stroke-width: 1.0;"/><!--link <b>src/index</b> to utils--><path d="M253.441,34.274 C258.799,53.382 269.148,90.293 275.224,111.967 " fill="none" id="&lt;b&gt;src/index&lt;/b&gt;-utils" style="stroke: #000000; stroke-width: 1.0;"/><polygon fill="#000000" points="276.599,116.869,278.0204,107.1233,275.249,112.0547,270.3176,109.2833,276.599,116.869" style="stroke: #000000; stroke-width: 1.0;"/><!--link <b>src/index</b> to world--><path d="M242.906,33.86 C231.36,53.163 208.493,91.394 195.537,113.055 " fill="none" id="&lt;b&gt;src/index&lt;/b&gt;-world" style="stroke: #000000; stroke-width: 1.0;"/><polygon fill="#000000" points="192.931,117.412,200.9848,111.7431,195.4984,113.1215,194.12,107.6352,192.931,117.412" style="stroke: #000000; stroke-width: 1.0;"/><!--link utils to d3--><path d="M272.052,142.362 C265.432,152.093 255.99,166.616 249,180 C242.965,191.5547 237.257,204.9696 232.922,215.8816 " fill="none" id="utils-d3" style="stroke: #000000; stroke-width: 0.55;"/><polygon fill="#000000" points="231.031,220.7035,238.0404,213.7848,232.8563,216.0486,230.5925,210.8644,231.031,220.7035" style="stroke: #000000; stroke-width: 0.55;"/><!--link utils to yargs--><path d="M280.229,143.16 C280.564,160.881 281.19,194.0585 281.601,215.8386 " fill="none" id="utils-yargs" style="stroke: #000000; stroke-width: 0.55;"/><polygon fill="#000000" points="281.695,220.8432,285.5243,211.7693,281.6006,215.8441,277.5257,211.9204,281.695,220.8432" style="stroke: #000000; stroke-width: 0.55;"/><!--link world to d3--><path d="M190.474,143.16 C197.021,160.956 209.304,194.3388 217.315,216.1137 " fill="none" id="world-d3" style="stroke: #000000; stroke-width: 0.55;"/><polygon fill="#000000" points="219.056,220.8432,219.7017,211.0155,217.3292,216.1508,212.1939,213.7784,219.056,220.8432" style="stroke: #000000; stroke-width: 0.55;"/><!--link world to d3-node--><path d="M169.417,139.838 C153.773,148.678 130.218,163.331 113,180 C101.8663,190.7787 91.6798,204.9082 84.2454,216.4027 " fill="none" id="world-d3-node" style="stroke: #000000; stroke-width: 0.55;"/><polygon fill="#000000" points="81.4344,220.8268,89.6371,215.3755,84.1158,216.6066,82.8847,211.0853,81.4344,220.8268" style="stroke: #000000; stroke-width: 0.55;"/><!--link world to topojson--><path d="M182.673,143.16 C177.825,160.881 168.748,194.0585 162.789,215.8386 " fill="none" id="world-topojson" style="stroke: #000000; stroke-width: 0.55;"/><polygon fill="#000000" points="161.42,220.8432,167.6534,213.2179,162.7395,216.0205,159.937,211.1066,161.42,220.8432" style="stroke: #000000; stroke-width: 0.55;"/><script type="text/plantuml"><![CDATA[
@startuml

scale max 1920 width
top to bottom direction

skinparam nodesep 14
skinparam ranksep 28
skinparam monochrome true
skinparam shadowing false
skinparam defaultFontName Tahoma
skinparam defaultFontSize 12
skinparam roundCorner 4
skinparam dpi 150
skinparam arrowColor black
skinparam arrowThickness 0.55
skinparam packageTitleAlignment left

skinparam usecase {
  borderThickness 0.5
}

skinparam rectangle {
  borderThickness 0.5
}

skinparam component {
  borderThickness 1
}


(github)
(google-maps)
(<b>src/index</b>)
(utils)
(world)

package "Dependencies" {
  [@google]
  [d3]
  [d3-node]
  [node-fetch]
  [progress]
  [topojson]
  [yargs]
}

(github) --> (google-maps)
(github) ---> [node-fetch]
(github) ---> [progress]
(github) --> (utils)
(google-maps) ---> [@google]
(google-maps) --> (utils)
(<b>src/index</b>) -[thickness=1]> (github)
(<b>src/index</b>) -[thickness=1]> (utils)
(<b>src/index</b>) -[thickness=1]> (world)
(utils) ---> [d3]
(utils) ---> [yargs]
(world) ---> [d3]
(world) ---> [d3-node]
(world) ---> [topojson]

@enduml


' View and edit on https://arkit.herokuapp.com
]]></script></g></svg>