<?xml version="1.0" encoding="UTF-8" standalone="no"?><svg xmlns="http://www.w3.org/2000/svg" xmlns:xlink="http://www.w3.org/1999/xlink" contentScriptType="application/ecmascript" contentStyleType="text/css" height="286px" preserveAspectRatio="none" style="width:669px;height:286px;" version="1.1" viewBox="0 0 669 286" width="669px" zoomAndPan="magnify"><defs/><g><!--cluster Dependencies--><path d="M24,191 L120,191 A3,3 0 0 1 122,193 L129,211.4844 L655,211.4844 A2,2 0 0 1 657,213.4844 L657,272 A2,2 0 0 1 655,274 L24,274 A2,2 0 0 1 22,272 L22,193 A2,2 0 0 1 24,191 " fill="#FFFFFF" style="stroke: #000000; stroke-width: 1.5;"/><line style="stroke: #000000; stroke-width: 1.5;" x1="22" x2="129" y1="211.4844" y2="211.4844"/><text fill="#000000" font-family="Tahoma, sans-serif" font-size="12" font-weight="bold" lengthAdjust="spacingAndGlyphs" textLength="94" x="26" y="205.0059">Dependencies</text><!--entity @google--><rect fill="#F8F8F8" height="34.4844" rx="2" ry="2" style="stroke: #383838; stroke-width: 1.0;" width="72" x="386" y="224"/><rect fill="#F8F8F8" height="5" style="stroke: #383838; stroke-width: 1.0;" width="10" x="381" y="229"/><rect fill="#F8F8F8" height="5" style="stroke: #383838; stroke-width: 1.0;" width="10" x="381" y="248.4844"/><text fill="#000000" font-family="Tahoma, sans-serif" font-size="12" lengthAdjust="spacingAndGlyphs" textLength="52" x="396" y="246.0059">@google</text><!--entity color--><rect fill="#F8F8F8" height="34.4844" rx="2" ry="2" style="stroke: #383838; stroke-width: 1.0;" width="50" x="126" y="224"/><rect fill="#F8F8F8" height="5" style="stroke: #383838; stroke-width: 1.0;" width="10" x="121" y="229"/><rect fill="#F8F8F8" height="5" style="stroke: #383838; stroke-width: 1.0;" width="10" x="121" y="248.4844"/><text fill="#000000" font-family="Tahoma, sans-serif" font-size="12" lengthAdjust="spacingAndGlyphs" textLength="30" x="136" y="246.0059">color</text><!--entity d3--><rect fill="#F8F8F8" height="34.4844" rx="2" ry="2" style="stroke: #383838; stroke-width: 1.0;" width="34" x="190" y="224"/><rect fill="#F8F8F8" height="5" style="stroke: #383838; stroke-width: 1.0;" width="10" x="185" y="229"/><rect fill="#F8F8F8" height="5" style="stroke: #383838; stroke-width: 1.0;" width="10" x="185" y="248.4844"/><text fill="#000000" font-family="Tahoma, sans-serif" font-size="12" lengthAdjust="spacingAndGlyphs" textLength="14" x="200" y="246.0059">d3</text><!--entity d3-node--><rect fill="#F8F8F8" height="34.4844" rx="2" ry="2" style="stroke: #383838; stroke-width: 1.0;" width="68" x="238" y="224"/><rect fill="#F8F8F8" height="5" style="stroke: #383838; stroke-width: 1.0;" width="10" x="233" y="229"/><rect fill="#F8F8F8" height="5" style="stroke: #383838; stroke-width: 1.0;" width="10" x="233" y="248.4844"/><text fill="#000000" font-family="Tahoma, sans-serif" font-size="12" lengthAdjust="spacingAndGlyphs" textLength="48" x="248" y="246.0059">d3-node</text><!--entity node-fetch--><rect fill="#F8F8F8" height="34.4844" rx="2" ry="2" style="stroke: #383838; stroke-width: 1.0;" width="83" x="472.5" y="224"/><rect fill="#F8F8F8" height="5" style="stroke: #383838; stroke-width: 1.0;" width="10" x="467.5" y="229"/><rect fill="#F8F8F8" height="5" style="stroke: #383838; stroke-width: 1.0;" width="10" x="467.5" y="248.4844"/><text fill="#000000" font-family="Tahoma, sans-serif" font-size="12" lengthAdjust="spacingAndGlyphs" textLength="63" x="482.5" y="246.0059">node-fetch</text><!--entity progress--><rect fill="#F8F8F8" height="34.4844" rx="2" ry="2" style="stroke: #383838; stroke-width: 1.0;" width="71" x="569.5" y="224"/><rect fill="#F8F8F8" height="5" style="stroke: #383838; stroke-width: 1.0;" width="10" x="564.5" y="229"/><rect fill="#F8F8F8" height="5" style="stroke: #383838; stroke-width: 1.0;" width="10" x="564.5" y="248.4844"/><text fill="#000000" font-family="Tahoma, sans-serif" font-size="12" lengthAdjust="spacingAndGlyphs" textLength="51" x="579.5" y="246.0059">progress</text><!--entity topojson--><rect fill="#F8F8F8" height="34.4844" rx="2" ry="2" style="stroke: #383838; stroke-width: 1.0;" width="73" x="38.5" y="224"/><rect fill="#F8F8F8" height="5" style="stroke: #383838; stroke-width: 1.0;" width="10" x="33.5" y="229"/><rect fill="#F8F8F8" height="5" style="stroke: #383838; stroke-width: 1.0;" width="10" x="33.5" y="248.4844"/><text fill="#000000" font-family="Tahoma, sans-serif" font-size="12" lengthAdjust="spacingAndGlyphs" textLength="53" x="48.5" y="246.0059">topojson</text><!--entity yargs--><rect fill="#F8F8F8" height="34.4844" rx="2" ry="2" style="stroke: #383838; stroke-width: 1.0;" width="51" x="320.5" y="224"/><rect fill="#F8F8F8" height="5" style="stroke: #383838; stroke-width: 1.0;" width="10" x="315.5" y="229"/><rect fill="#F8F8F8" height="5" style="stroke: #383838; stroke-width: 1.0;" width="10" x="315.5" y="248.4844"/><text fill="#000000" font-family="Tahoma, sans-serif" font-size="12" lengthAdjust="spacingAndGlyphs" textLength="31" x="330.5" y="246.0059">yargs</text><ellipse cx="423.2487" cy="21.242" fill="#F8F8F8" rx="27.7487" ry="13.242" style="stroke: #383838; stroke-width: 0.5;"/><text fill="#000000" font-family="Tahoma, sans-serif" font-size="12" lengthAdjust="spacingAndGlyphs" textLength="35" x="405.7487" y="24.9842">github</text><ellipse cx="422.8534" cy="76.5707" fill="#F8F8F8" rx="55.8534" ry="13.5707" style="stroke: #383838; stroke-width: 0.5;"/><text fill="#000000" font-family="Tahoma, sans-serif" font-size="12" lengthAdjust="spacingAndGlyphs" textLength="77" x="384.3534" y="80.3129">google-maps</text><ellipse cx="314.8406" cy="21.242" fill="#F8F8F8" rx="46.8406" ry="13.242" style="stroke: #383838; stroke-width: 0.5;"/><text fill="#000000" font-family="Tahoma, sans-serif" font-size="12" font-weight="bold" lengthAdjust="spacingAndGlyphs" textLength="62" x="283.8406" y="24.9842">src/index</text><ellipse cx="224.1421" cy="76.742" fill="#F8F8F8" rx="17.1421" ry="13.242" style="stroke: #383838; stroke-width: 0.5;"/><text fill="#000000" font-family="Tahoma, sans-serif" font-size="12" lengthAdjust="spacingAndGlyphs" textLength="20" x="214.1421" y="80.4842">svg</text><ellipse cx="344.9706" cy="132.242" fill="#F8F8F8" rx="19.9706" ry="13.242" style="stroke: #383838; stroke-width: 0.5;"/><text fill="#000000" font-family="Tahoma, sans-serif" font-size="12" lengthAdjust="spacingAndGlyphs" textLength="24" x="332.9706" y="135.9842">utils</text><!--link github to google-maps--><path d="M423,34.14 C423,41.054 423,49.845 423,57.544 " fill="none" id="github-google-maps" style="stroke: #000000; stroke-width: 0.55;"/><polygon fill="#000000" points="423,62.662,427,53.662,423,57.662,419,53.662,423,62.662" style="stroke: #000000; stroke-width: 0.55;"/><!--link github to node-fetch--><path d="M443.354,29.901 C457.636,36.539 475.917,47.453 486,63 C517.496,111.562 518.001,183.024 515.926,218.4521 " fill="none" id="github-node-fetch" style="stroke: #000000; stroke-width: 0.55;"/><polygon fill="#000000" points="515.575,223.8198,520.1539,215.1001,515.9013,218.8305,512.1709,214.5779,515.575,223.8198" style="stroke: #000000; stroke-width: 0.55;"/><!--link github to progress--><path d="M444.769,29.231 C462.146,35.859 486.271,47.074 503,63 C551.233,108.917 583.584,182.697 597.403,218.7654 " fill="none" id="github-progress" style="stroke: #000000; stroke-width: 0.55;"/><polygon fill="#000000" points="599.308,223.8055,599.8699,213.9727,597.5413,219.128,592.3859,216.7994,599.308,223.8055" style="stroke: #000000; stroke-width: 0.55;"/><!--link github to utils--><path d="M402.922,30.086 C388.777,36.815 370.547,47.764 360,63 C349.582,78.05 346.24,99.084 345.249,113.759 " fill="none" id="github-utils" style="stroke: #000000; stroke-width: 0.55;"/><polygon fill="#000000" points="344.981,118.855,349.4486,110.0777,345.2439,113.8619,341.4597,109.6572,344.981,118.855" style="stroke: #000000; stroke-width: 0.55;"/><!--link google-maps to @google--><path d="M422.922,90.251 C422.751,118.02 422.343,184.218 422.132,218.54 " fill="none" id="google-maps-@google" style="stroke: #000000; stroke-width: 0.55;"/><polygon fill="#000000" points="422.1,223.7639,426.1555,214.7888,422.1309,218.764,418.1556,214.7394,422.1,223.7639" style="stroke: #000000; stroke-width: 0.55;"/><!--link google-maps to utils--><path d="M405.689,89.373 C392.786,98.224 375.238,110.26 362.33,119.114 " fill="none" id="google-maps-utils" style="stroke: #000000; stroke-width: 0.55;"/><polygon fill="#000000" points="358.143,121.985,367.8272,120.1918,362.266,119.1564,363.3014,113.5951,358.143,121.985" style="stroke: #000000; stroke-width: 0.55;"/><!--link <b>src/index</b> to github--><path d="M362.25,21 C371.594,21 380.938,21 390.282,21 " fill="none" id="&lt;b&gt;src/index&lt;/b&gt;-github" style="stroke: #000000; stroke-width: 1.0;"/><polygon fill="#000000" points="395.473,21,386.473,17,390.473,21,386.473,25,395.473,21" style="stroke: #000000; stroke-width: 1.0;"/><!--link <b>src/index</b> to svg--><path d="M296.145,33.085 C280.104,42.516 257.241,55.957 241.577,65.166 " fill="none" id="&lt;b&gt;src/index&lt;/b&gt;-svg" style="stroke: #000000; stroke-width: 1.0;"/><polygon fill="#000000" points="236.963,67.879,246.7488,66.7667,241.2735,65.3453,242.6949,59.8699,236.963,67.879" style="stroke: #000000; stroke-width: 1.0;"/><!--link <b>src/index</b> to utils--><path d="M318.325,34.081 C323.664,53.478 334.166,91.636 340.279,113.848 " fill="none" id="&lt;b&gt;src/index&lt;/b&gt;-utils" style="stroke: #000000; stroke-width: 1.0;"/><polygon fill="#000000" points="341.66,118.865,343.1273,109.1261,340.3327,114.0444,335.4144,111.2498,341.66,118.865" style="stroke: #000000; stroke-width: 1.0;"/><!--link svg to color--><path d="M218.867,88.927 C206.741,115.919 176.173,183.965 160.535,218.7749 " fill="none" id="svg-color" style="stroke: #000000; stroke-width: 0.55;"/><polygon fill="#000000" points="158.34,223.6608,165.6774,217.0909,160.3893,219.1001,158.3802,213.812,158.34,223.6608" style="stroke: #000000; stroke-width: 0.55;"/><!--link svg to d3--><path d="M222.722,89.714 C219.849,117.179 212.848,184.099 209.237,218.6202 " fill="none" id="svg-d3" style="stroke: #000000; stroke-width: 0.55;"/><polygon fill="#000000" points="208.687,223.8715,213.6018,215.3366,209.2073,218.8986,205.6452,214.5041,208.687,223.8715" style="stroke: #000000; stroke-width: 0.55;"/><!--link svg to d3-node--><path d="M227.53,89.449 C235.619,116.834 255.583,184.422 265.784,218.955 " fill="none" id="svg-d3-node" style="stroke: #000000; stroke-width: 0.55;"/><polygon fill="#000000" points="267.215,223.8014,268.5016,214.0369,265.7986,219.0062,260.8293,216.3032,267.215,223.8014" style="stroke: #000000; stroke-width: 0.55;"/><!--link svg to topojson--><path d="M213.729,86.992 C194.424,105.009 151.723,145.706 119,183 C108.81,194.6138 98.2031,208.2994 89.9575,219.3493 " fill="none" id="svg-topojson" style="stroke: #000000; stroke-width: 0.55;"/><polygon fill="#000000" points="86.8052,223.5994,95.3795,218.7537,89.7839,219.5835,88.954,213.9878,86.8052,223.5994" style="stroke: #000000; stroke-width: 0.55;"/><!--link svg to utils--><path d="M238.355,83.847 C259.718,93.293 299.979,111.094 324.456,121.917 " fill="none" id="svg-utils" style="stroke: #000000; stroke-width: 0.55;"/><polygon fill="#000000" points="329.131,123.983,322.5185,116.684,324.5584,121.9603,319.2822,124.0001,329.131,123.983" style="stroke: #000000; stroke-width: 0.55;"/><!--link utils to yargs--><path d="M345.115,145.274 C345.282,163.163 345.595,196.6534 345.8,218.6389 " fill="none" id="utils-yargs" style="stroke: #000000; stroke-width: 0.55;"/><polygon fill="#000000" points="345.848,223.6908,349.7635,214.6537,345.8011,218.691,341.7638,214.7287,345.848,223.6908" style="stroke: #000000; stroke-width: 0.55;"/><script type="text/plantuml"><![CDATA[
@startuml

scale max 1920 width
top to bottom direction

skinparam nodesep 14
skinparam ranksep 29
skinparam monochrome true
skinparam shadowing false
skinparam defaultFontName Tahoma
skinparam defaultFontSize 12
skinparam roundCorner 4
skinparam dpi 150
skinparam arrowColor black
skinparam arrowThickness 0.55
skinparam packageTitleAlignment left

skinparam usecase {
  borderThickness 0.5
}

skinparam rectangle {
  borderThickness 0.5
}

skinparam component {
  borderThickness 1
}


(github)
(google-maps)
(<b>src/index</b>)
(svg)
(utils)

package "Dependencies" {
  [@google]
  [color]
  [d3]
  [d3-node]
  [node-fetch]
  [progress]
  [topojson]
  [yargs]
}

(github) --> (google-maps)
(github) ---> [node-fetch]
(github) ---> [progress]
(github) --> (utils)
(google-maps) ---> [@google]
(google-maps) --> (utils)
(<b>src/index</b>) -[thickness=1]> (github)
(<b>src/index</b>) -[thickness=1]> (svg)
(<b>src/index</b>) -[thickness=1]> (utils)
(svg) ---> [color]
(svg) ---> [d3]
(svg) ---> [d3-node]
(svg) ---> [topojson]
(svg) --> (utils)
(utils) ---> [yargs]

@enduml


' View and edit on https://arkit.herokuapp.com
]]></script></g></svg>